<svg width="512" height="512" viewBox="0 0 512 512" fill="none" xmlns="http://www.w3.org/2000/svg"><rect x="80.5" y="114.548" width="346.5" height="254" rx="25" fill="url(#a)"/><rect x="80.5" y="114.548" width="346.5" height="254" rx="25" fill="url(#b)"/><path d="m80.5 199.859 165.194 98.071a20 20 0 0 0 20.561-.085L427 200.62v142.928c0 13.807-11.193 25-25 25H105.5c-13.807 0-25-11.193-25-25V199.859Z" fill="url(#c)"/><path d="m80.5 199.859 165.194 98.071a20 20 0 0 0 20.561-.085L427 200.62v142.928c0 13.807-11.193 25-25 25H105.5c-13.807 0-25-11.193-25-25V199.859Z" fill="url(#d)"/><path fill-rule="evenodd" clip-rule="evenodd" d="M199.049 102.947a8.175 8.175 0 0 1 8.175 8.176 8.175 8.175 0 0 1-8.175 8.175h-42.098a8.175 8.175 0 0 1-8.175-8.175 8.175 8.175 0 0 1 8.175-8.176h42.098Zm78 0a8.175 8.175 0 0 1 8.175 8.176 8.175 8.175 0 0 1-8.175 8.175h-42.098a8.175 8.175 0 0 1-8.175-8.175 8.175 8.175 0 0 1 8.175-8.176h42.098Zm84.675 8.176a8.175 8.175 0 0 0-8.175-8.176h-42.098a8.175 8.175 0 0 0-8.175 8.176 8.175 8.175 0 0 0 8.175 8.175h42.098a8.175 8.175 0 0 0 8.175-8.175Z" fill="url(#e)"/><path fill-rule="evenodd" clip-rule="evenodd" d="M199.049 364.197a8.175 8.175 0 0 1 8.175 8.176 8.175 8.175 0 0 1-8.175 8.175h-42.098a8.175 8.175 0 0 1-8.175-8.175 8.175 8.175 0 0 1 8.175-8.176h42.098Zm78 0a8.175 8.175 0 0 1 8.175 8.176 8.175 8.175 0 0 1-8.175 8.175h-42.098a8.175 8.175 0 0 1-8.175-8.175 8.175 8.175 0 0 1 8.175-8.176h42.098Zm84.675 8.176a8.175 8.175 0 0 0-8.175-8.176h-42.098a8.175 8.175 0 0 0-8.175 8.176 8.175 8.175 0 0 0 8.175 8.175h42.098a8.175 8.175 0 0 0 8.175-8.175Z" fill="url(#f)"/><rect width="16.351" height="58.201" rx="8.175" transform="matrix(-1 0 0 1 86.925 244.847)" fill="url(#g)"/><rect width="16.351" height="58.201" rx="8.175" transform="matrix(-1 0 0 1 86.925 244.847)" fill="url(#h)"/><rect width="16.351" height="58.201" rx="8.175" transform="matrix(-1 0 0 1 86.925 244.847)" fill="url(#i)" fill-opacity=".6"/><rect width="16.351" height="58.201" rx="8.175" transform="matrix(-1 0 0 1 86.925 244.847)" fill="url(#j)" fill-opacity=".5"/><path fill-rule="evenodd" clip-rule="evenodd" d="M380.987 111.449a8.5 8.5 0 0 1 8.5-8.5h19.38c15.772 0 28.558 12.786 28.558 28.558v16.13a8.5 8.5 0 0 1-17 0v-16.13c0-6.383-5.175-11.558-11.558-11.558h-19.38a8.5 8.5 0 0 1-8.5-8.5Z" fill="url(#k)"/><path fill-rule="evenodd" clip-rule="evenodd" d="M380.987 111.449a8.5 8.5 0 0 1 8.5-8.5h19.38c15.772 0 28.558 12.786 28.558 28.558v16.13a8.5 8.5 0 0 1-17 0v-16.13c0-6.383-5.175-11.558-11.558-11.558h-19.38a8.5 8.5 0 0 1-8.5-8.5Z" fill="url(#l)"/><path fill-rule="evenodd" clip-rule="evenodd" d="M380.987 111.449a8.5 8.5 0 0 1 8.5-8.5h19.38c15.772 0 28.558 12.786 28.558 28.558v16.13a8.5 8.5 0 0 1-17 0v-16.13c0-6.383-5.175-11.558-11.558-11.558h-19.38a8.5 8.5 0 0 1-8.5-8.5Z" fill="url(#m)"/><path fill-rule="evenodd" clip-rule="evenodd" d="M380.987 111.449a8.5 8.5 0 0 1 8.5-8.5h19.38c15.772 0 28.558 12.786 28.558 28.558v16.13a8.5 8.5 0 0 1-17 0v-16.13c0-6.383-5.175-11.558-11.558-11.558h-19.38a8.5 8.5 0 0 1-8.5-8.5Z" fill="url(#n)" fill-opacity=".5"/><path fill-rule="evenodd" clip-rule="evenodd" d="M100.168 119.947c-7.614 0-13.787 6.173-13.787 13.787v15.589a8.5 8.5 0 0 1-17 0v-15.589c0-17.003 13.784-30.787 30.787-30.787h19.38a8.5 8.5 0 0 1 0 17h-19.38Z" fill="url(#o)"/><path fill-rule="evenodd" clip-rule="evenodd" d="M100.168 119.947c-7.614 0-13.787 6.173-13.787 13.787v15.589a8.5 8.5 0 0 1-17 0v-15.589c0-17.003 13.784-30.787 30.787-30.787h19.38a8.5 8.5 0 0 1 0 17h-19.38Z" fill="url(#p)"/><path fill-rule="evenodd" clip-rule="evenodd" d="M100.168 119.947c-7.614 0-13.787 6.173-13.787 13.787v15.589a8.5 8.5 0 0 1-17 0v-15.589c0-17.003 13.784-30.787 30.787-30.787h19.38a8.5 8.5 0 0 1 0 17h-19.38Z" fill="url(#q)" fill-opacity=".5"/><path fill-rule="evenodd" clip-rule="evenodd" d="M380.987 372.045a8.5 8.5 0 0 0 8.5 8.5h19.38c15.772 0 28.558-12.786 28.558-28.557v-16.129a8.5 8.5 0 0 0-17 0v16.129c0 6.383-5.175 11.558-11.558 11.558h-19.38a8.5 8.5 0 0 0-8.5 8.499Z" fill="url(#r)"/><path fill-rule="evenodd" clip-rule="evenodd" d="M380.987 372.045a8.5 8.5 0 0 0 8.5 8.5h19.38c15.772 0 28.558-12.786 28.558-28.557v-16.129a8.5 8.5 0 0 0-17 0v16.129c0 6.383-5.175 11.558-11.558 11.558h-19.38a8.5 8.5 0 0 0-8.5 8.499Z" fill="url(#s)"/><path fill-rule="evenodd" clip-rule="evenodd" d="M380.987 372.045a8.5 8.5 0 0 0 8.5 8.5h19.38c15.772 0 28.558-12.786 28.558-28.557v-16.129a8.5 8.5 0 0 0-17 0v16.129c0 6.383-5.175 11.558-11.558 11.558h-19.38a8.5 8.5 0 0 0-8.5 8.499Z" fill="url(#t)"/><path fill-rule="evenodd" clip-rule="evenodd" d="M380.987 372.045a8.5 8.5 0 0 0 8.5 8.5h19.38c15.772 0 28.558-12.786 28.558-28.557v-16.129a8.5 8.5 0 0 0-17 0v16.129c0 6.383-5.175 11.558-11.558 11.558h-19.38a8.5 8.5 0 0 0-8.5 8.499Z" fill="url(#u)" fill-opacity=".5"/><path fill-rule="evenodd" clip-rule="evenodd" d="M100.168 363.547c-7.614 0-13.787-6.172-13.787-13.786v-15.588a8.5 8.5 0 0 0-17 0v15.588c0 17.003 13.784 30.786 30.787 30.786h19.38a8.5 8.5 0 0 0 0-17h-19.38Z" fill="url(#v)"/><path fill-rule="evenodd" clip-rule="evenodd" d="M100.168 363.547c-7.614 0-13.787-6.172-13.787-13.786v-15.588a8.5 8.5 0 0 0-17 0v15.588c0 17.003 13.784 30.786 30.787 30.786h19.38a8.5 8.5 0 0 0 0-17h-19.38Z" fill="url(#w)"/><path fill-rule="evenodd" clip-rule="evenodd" d="M100.168 363.547c-7.614 0-13.787-6.172-13.787-13.786v-15.588a8.5 8.5 0 0 0-17 0v15.588c0 17.003 13.784 30.786 30.787 30.786h19.38a8.5 8.5 0 0 0 0-17h-19.38Z" fill="url(#x)" fill-opacity=".5"/><path fill-rule="evenodd" clip-rule="evenodd" d="M78.75 170.758a8.175 8.175 0 0 1 8.175 8.175v41.851a8.175 8.175 0 0 1-8.175 8.175 8.175 8.175 0 0 1-8.175-8.175v-41.851a8.175 8.175 0 0 1 8.175-8.175Zm0 74.09a8.175 8.175 0 0 1 8.175 8.175v41.851a8.175 8.175 0 0 1-8.175 8.175 8.175 8.175 0 0 1-8.175-8.175v-41.851a8.175 8.175 0 0 1 8.175-8.175Z" fill="url(#y)"/><path fill-rule="evenodd" clip-rule="evenodd" d="M429.25 170.758a8.175 8.175 0 0 1 8.175 8.175v41.851a8.175 8.175 0 1 1-16.35 0v-41.851a8.175 8.175 0 0 1 8.175-8.175Zm0 74.09a8.175 8.175 0 0 1 8.175 8.175v41.851a8.175 8.175 0 1 1-16.35 0v-41.851a8.175 8.175 0 0 1 8.175-8.175Z" fill="url(#z)"/><circle cx="103" cy="110.047" r="2.5" fill="#FFCE1F"/><circle cx="431.75" cy="135.547" r="2.5" fill="#FFCE1F"/><circle cx="426.75" cy="271.449" r="2.5" fill="#FFCE1F"/><circle cx="406.707" cy="369.871" r="2.5" fill="#FFCE1F"/><circle cx="240.707" cy="369.871" r="2.5" fill="#FFCE1F"/><circle cx="78" cy="361.697" r="2.5" fill="#FFCE1F"/><circle cx="91.232" cy="114.047" r="1.5" fill="#FFCE1F"/><circle cx="407.707" cy="113.047" r="1.5" fill="#FFCE1F"/><circle cx="430.75" cy="263.17" r="1.5" fill="#FFCE1F"/><circle cx="425.75" cy="194.17" r="1.5" fill="#FFCE1F"/><circle cx="397.25" cy="372.371" r="1.5" fill="#FFCE1F"/><circle cx="252.25" cy="375.371" r="1.5" fill="#FFCE1F"/><circle cx="86.925" cy="367.371" r="1.5" fill="#FFCE1F"/><circle cx="76.5" cy="339.871" r="1.5" fill="#FFCE1F"/><circle cx="79.5" cy="277.316" r="1.5" fill="#FFCE1F"/><circle cx="193" cy="111.121" r="1.5" fill="#FFCE1F"/><circle cx="176.5" cy="112.621" r="1.5" fill="#FFCE1F"/><defs><linearGradient id="a" x1="406" y1="98.472" x2="165.739" y2="594.628" gradientUnits="userSpaceOnUse"><stop offset=".371" stop-color="#424242"/><stop offset="1" stop-color="#416C6F"/></linearGradient><linearGradient id="b" x1="175.594" y1="116.717" x2="175.594" y2="151.975" gradientUnits="userSpaceOnUse"><stop stop-color="#313131"/><stop offset=".86" stop-color="#222" stop-opacity="0"/></linearGradient><linearGradient id="c" x1="406" y1="189.183" x2="269.758" y2="598.479" gradientUnits="userSpaceOnUse"><stop offset=".352" stop-color="#424242"/><stop offset=".485" stop-color="#416264"/><stop offset="1" stop-color="#3EF3FF"/></linearGradient><linearGradient id="e" x1="268" y1="124.047" x2="268" y2="102.947" gradientUnits="userSpaceOnUse"><stop offset=".174" stop-color="#0054DC"/><stop offset=".711" stop-color="#2EB4FF"/><stop offset="1" stop-color="#A3DEFF"/></linearGradient><linearGradient id="f" x1="268" y1="385.297" x2="268" y2="364.197" gradientUnits="userSpaceOnUse"><stop offset=".174" stop-color="#0054DC"/><stop offset=".711" stop-color="#2EB4FF"/><stop offset="1" stop-color="#A3DEFF"/></linearGradient><linearGradient id="h" x1="21.893" y1="24.901" x2="-7.136" y2="24.38" gradientUnits="userSpaceOnUse"><stop offset=".221" stop-color="#094ACC"/><stop offset=".442" stop-color="#0081F9" stop-opacity=".54"/><stop offset=".657" stop-color="#5FC5FE" stop-opacity="0"/></linearGradient><linearGradient id="k" x1="437.424" y1="135.606" x2="419.112" y2="135.606" gradientUnits="userSpaceOnUse"><stop offset=".223" stop-color="#2EB4FF"/><stop offset=".432" stop-color="#0081F9"/><stop offset="1" stop-color="#094ACC"/></linearGradient><linearGradient id="l" x1="414.985" y1="163.249" x2="414.906" y2="102.949" gradientUnits="userSpaceOnUse"><stop offset=".617" stop-color="#0950D1" stop-opacity="0"/><stop offset=".689" stop-color="#094ACC"/><stop offset=".812" stop-color="#0081F9"/><stop offset=".952" stop-color="#4ECBFF"/></linearGradient><linearGradient id="o" x1="105.401" y1="102.947" x2="105.401" y2="120.753" gradientUnits="userSpaceOnUse"><stop offset=".467" stop-color="#2EB4FF"/><stop offset=".689" stop-color="#0081F9"/><stop offset="1" stop-color="#094ACC"/></linearGradient><linearGradient id="p" x1="149.111" y1="119.947" x2="67.37" y2="123.087" gradientUnits="userSpaceOnUse"><stop offset=".265" stop-color="#2EB4FF" stop-opacity="0"/><stop offset=".729" stop-color="#2EB4FF"/><stop offset=".891" stop-color="#0081F9"/><stop offset="1" stop-color="#094ACC"/></linearGradient><linearGradient id="r" x1="437.424" y1="347.89" x2="419.112" y2="347.89" gradientUnits="userSpaceOnUse"><stop offset=".223" stop-color="#2EB4FF"/><stop offset=".432" stop-color="#0081F9"/><stop offset="1" stop-color="#094ACC"/></linearGradient><linearGradient id="s" x1="413.75" y1="408.547" x2="412.742" y2="364.797" gradientUnits="userSpaceOnUse"><stop offset=".617" stop-color="#0950D1" stop-opacity="0"/><stop offset=".689" stop-color="#094ACC"/><stop offset=".812" stop-color="#0081F9"/><stop offset=".952" stop-color="#4ECBFF"/></linearGradient><linearGradient id="v" x1="107.5" y1="363.422" x2="107.375" y2="380.547" gradientUnits="userSpaceOnUse"><stop offset=".467" stop-color="#2EB4FF"/><stop offset=".689" stop-color="#0081F9"/><stop offset="1" stop-color="#094ACC"/></linearGradient><linearGradient id="w" x1="149.111" y1="363.548" x2="67.37" y2="360.407" gradientUnits="userSpaceOnUse"><stop offset=".265" stop-color="#2EB4FF" stop-opacity="0"/><stop offset=".729" stop-color="#2EB4FF"/><stop offset=".891" stop-color="#0081F9"/><stop offset="1" stop-color="#094ACC"/></linearGradient><linearGradient id="y" x1="66.5" y1="226.547" x2="86.925" y2="226.047" gradientUnits="userSpaceOnUse"><stop offset=".174" stop-color="#0054DC"/><stop offset=".711" stop-color="#2EB4FF"/><stop offset="1" stop-color="#A3DEFF"/></linearGradient><linearGradient id="z" x1="417" y1="226.547" x2="437.425" y2="226.047" gradientUnits="userSpaceOnUse"><stop offset=".174" stop-color="#0054DC"/><stop offset=".711" stop-color="#2EB4FF"/><stop offset="1" stop-color="#A3DEFF"/></linearGradient><radialGradient id="d" cx="0" cy="0" r="1" gradientUnits="userSpaceOnUse" gradientTransform="matrix(0 160.687 -306.65 0 253.75 199.859)"><stop offset=".36" stop-color="#262626"/><stop offset="1" stop-color="#262626" stop-opacity="0"/></radialGradient><radialGradient id="g" cx="0" cy="0" r="1" gradientUnits="userSpaceOnUse" gradientTransform="rotate(-87.458 43.51 29.158) scale(87.9259 86.7302)"><stop offset=".174" stop-color="#0054DC"/><stop offset=".276" stop-color="#2EB4FF"/></radialGradient><radialGradient id="i" cx="0" cy="0" r="1" gradientUnits="userSpaceOnUse" gradientTransform="matrix(4.33082 -.28566 .33977 5.15109 3.844 7.63)"><stop stop-color="#fff"/><stop offset="1" stop-color="#fff" stop-opacity="0"/></radialGradient><radialGradient id="j" cx="0" cy="0" r="1" gradientUnits="userSpaceOnUse" gradientTransform="matrix(.28686 -26.91237 7.56055 .08059 1.693 26.912)"><stop offset=".213" stop-color="#fff"/><stop offset="1" stop-color="#fff" stop-opacity="0"/></radialGradient><radialGradient id="m" cx="0" cy="0" r="1" gradientUnits="userSpaceOnUse" gradientTransform="rotate(153.587 204.333 108.951) scale(36.2905 75.8533)"><stop offset=".257" stop-color="#2EB4FF"/><stop offset=".539" stop-color="#2EB4FF" stop-opacity="0"/></radialGradient><radialGradient id="n" cx="0" cy="0" r="1" gradientUnits="userSpaceOnUse" gradientTransform="rotate(2.321 -2268.76 9943.857) scale(27.0664 12.0478)"><stop offset=".114" stop-color="#fff"/><stop offset="1" stop-color="#fff" stop-opacity="0"/></radialGradient><radialGradient id="q" cx="0" cy="0" r="1" gradientUnits="userSpaceOnUse" gradientTransform="matrix(-28.71673 .56543 -.15606 -7.92581 110.401 105.889)"><stop offset=".213" stop-color="#fff"/><stop offset="1" stop-color="#fff" stop-opacity="0"/></radialGradient><radialGradient id="t" cx="0" cy="0" r="1" gradientUnits="userSpaceOnUse" gradientTransform="rotate(-139.979 286.554 110.02) scale(41.7204 87.2008)"><stop offset=".257" stop-color="#1589F8"/><stop offset=".539" stop-color="#1589F8" stop-opacity="0"/></radialGradient><radialGradient id="u" cx="0" cy="0" r="1" gradientUnits="userSpaceOnUse" gradientTransform="rotate(-95.185 381.562 -23.889) scale(26.7021 13.368)"><stop offset=".414" stop-color="#fff"/><stop offset="1" stop-color="#fff" stop-opacity="0"/></radialGradient><radialGradient id="x" cx="0" cy="0" r="1" gradientUnits="userSpaceOnUse" gradientTransform="matrix(-25.50002 1.75004 -.62075 -9.04503 110.375 363.047)"><stop offset=".213" stop-color="#fff"/><stop offset="1" stop-color="#fff" stop-opacity="0"/></radialGradient></defs></svg>